# xmcd CD database file
#
# Track frame offsets:
#	150
#	14919
#	31078
#	44044
#	62412
#	77297
#	88646
#	103467
#	120813
#	136373
#	153677
#	167770
#	189153
#	207107
#	221085
#	234021
#	245116
#	255821
#	268158
#	277153
#
# Disc length: 3893 seconds
#
# Revision: 0
# Processed by: cddbd v1.5.2PL0 Copyright (c) Steve Scherf et al.
# Submitted via: CDex 1.51
#
DISCID=150f3314
DTITLE=Varous artists - Double Country CD 1
DYEAR=2002
DGENRE=Country
TTITLE0=Boot shootin' boogie - Brooks and Dunn
TTITLE1=half a chance - Vince Gill
TTITLE2=Rubt don't take your love to town - Kenny Rogers
TTITLE3=How your love make me feel - Rio Diamond
TTITLE4=Here I am - Dolly Parton
TTITLE5=Loose talk - Carl Smith
TTITLE6=Lord Mr. Ford - Jerry Reed
TTITLE7=I love the way you do that - Lone Star
TTITLE8=Lucky in love - Sherrie Austin
TTITLE9=Always on my mind(instr) - Al Hirt and Ace Cannon
TTITLE10=Tender moments - Lee Roy Parnell
TTITLE11=The bluest eyes in Texas - Restless Heart
TTITLE12=Seminole wind - John Anderson
TTITLE13=Chasin' that neon rainbow - Alan Jackson
TTITLE14=By my side - Lorrie Morgan
TTITLE15=Tender years - Johnny Paycheck
TTITLE16=Am I that easy to forget - Carl Belew
TTITLE17=Stand by your man - Lynn Anderson
TTITLE18=Rawhide - Frankie Lane
TTITLE19=Harper Valley P T A - Jeannie C Riley
EXTD=YEAR: 2002
EXTT0=
EXTT1=
EXTT2=
EXTT3=
EXTT4=
EXTT5=
EXTT6=
EXTT7=
EXTT8=
EXTT9=
EXTT10=
EXTT11=
EXTT12=
EXTT13=
EXTT14=
EXTT15=
EXTT16=
EXTT17=
EXTT18=
EXTT19=
PLAYORDER=
